<?xml version="1.0" encoding="UTF-8"?>
<!-- Generator: Adobe Illustrator 26.0.0, SVG Export Plug-In . SVG Version: 6.00 Build 0)  -->
<svg xmlns="http://www.w3.org/2000/svg" xmlns:xlink="http://www.w3.org/1999/xlink" version="1.1" id="Ebene_1" x="0px" y="0px" viewBox="0 0 399.8 133.2" style="enable-background:new 0 0 399.8 133.2;" xml:space="preserve">
<style type="text/css">
	.st0{fill:#1E3664;}
</style>
<g>
	<path class="st0" d="M394.8,62.3c-1.4,0-2.5,0.5-3.3,1.4c0,0,0,0-0.1,0c0,0,0,0,0-0.1v-5.9c0-0.2-0.1-0.3-0.3-0.3h-2   c-0.2,0-0.3,0.1-0.3,0.3v17.6c0,0.2,0.1,0.3,0.3,0.3h2c0.2,0,0.3-0.1,0.3-0.3v-8.1c0-0.8,0.3-1.5,0.8-2.1c0.5-0.5,1.2-0.8,2-0.8   c0.8,0,1.5,0.3,2,0.8c0.5,0.5,0.8,1.2,0.8,2.1v8c0,0.2,0.1,0.3,0.3,0.3h2c0.2,0,0.3-0.1,0.3-0.3v-8.5c0-1.4-0.4-2.5-1.2-3.3   C397.3,62.7,396.2,62.3,394.8,62.3 M380.6,75.8c1.5,0,2.8-0.3,3.7-1c0.9-0.7,1.4-1.6,1.4-2.8c0-0.8-0.2-1.5-0.7-2.1   c-0.5-0.5-1-0.9-1.7-1.2c-0.7-0.3-1.5-0.5-2.5-0.8c-1-0.3-1.8-0.6-2.2-0.8c-0.5-0.3-0.7-0.6-0.7-1.1c0-0.5,0.2-0.9,0.7-1.2   c0.5-0.3,1.1-0.4,1.8-0.4c0.8,0,1.5,0.2,2,0.5c0.5,0.3,0.7,0.8,0.7,1.3v0.1c0,0.2,0.1,0.3,0.3,0.3h1.8c0.2,0,0.3-0.1,0.3-0.3V66   c0-0.7-0.2-1.3-0.6-1.9c-0.4-0.6-1-1-1.8-1.3c-0.8-0.3-1.7-0.5-2.7-0.5c-1.5,0-2.7,0.3-3.6,1c-0.9,0.7-1.4,1.6-1.4,2.8   c0,0.8,0.2,1.5,0.7,2c0.5,0.5,1,0.9,1.7,1.2c0.7,0.3,1.5,0.6,2.5,0.8c1,0.3,1.7,0.5,2.2,0.8c0.4,0.2,0.7,0.6,0.7,1.1   c0,0.5-0.2,0.9-0.7,1.3c-0.5,0.3-1.1,0.5-1.9,0.5c-0.8,0-1.5-0.2-2-0.5c-0.5-0.4-0.8-0.8-0.8-1.3v-0.1c0-0.2-0.1-0.3-0.3-0.3h-1.9   c-0.2,0-0.3,0.1-0.3,0.3v0.3c0,0.7,0.2,1.3,0.6,1.8c0.4,0.5,1,1,1.8,1.3C378.7,75.6,379.6,75.8,380.6,75.8 M369.8,75.6h2   c0.2,0,0.3-0.1,0.3-0.3V62.7c0-0.2-0.1-0.3-0.3-0.3h-2c-0.2,0-0.3,0.1-0.3,0.3v12.6C369.5,75.5,369.6,75.6,369.8,75.6 M370.8,60.4   c0.5,0,0.9-0.2,1.2-0.5c0.3-0.3,0.5-0.7,0.5-1.2c0-0.5-0.2-0.9-0.5-1.2c-0.3-0.3-0.7-0.5-1.2-0.5c-0.5,0-0.9,0.2-1.2,0.5   c-0.3,0.3-0.5,0.7-0.5,1.2c0,0.5,0.2,0.9,0.5,1.2C369.9,60.2,370.3,60.4,370.8,60.4 M361.1,62.3c-1.4,0-2.5,0.5-3.3,1.4   c0,0,0,0-0.1,0c0,0,0,0,0-0.1v-0.9c0-0.2-0.1-0.3-0.3-0.3h-2c-0.2,0-0.3,0.1-0.3,0.3v12.7c0,0.2,0.1,0.3,0.3,0.3h2   c0.2,0,0.3-0.1,0.3-0.3v-8.1c0-0.8,0.3-1.5,0.8-2.1c0.5-0.5,1.2-0.8,2-0.8c0.8,0,1.5,0.3,2,0.8c0.5,0.5,0.8,1.2,0.8,2.1v8   c0,0.2,0.1,0.3,0.3,0.3h2c0.2,0,0.3-0.1,0.3-0.3v-8.5c0-1.4-0.4-2.5-1.2-3.3C363.6,62.7,362.5,62.3,361.1,62.3 M348.9,75.6h2   c0.2,0,0.3-0.1,0.3-0.3V62.7c0-0.2-0.1-0.3-0.3-0.3h-2c-0.2,0-0.3,0.1-0.3,0.3v12.6C348.6,75.5,348.7,75.6,348.9,75.6 M349.9,60.4   c0.5,0,0.9-0.2,1.2-0.5c0.3-0.3,0.5-0.7,0.5-1.2c0-0.5-0.2-0.9-0.5-1.2c-0.3-0.3-0.7-0.5-1.2-0.5c-0.5,0-0.9,0.2-1.2,0.5   c-0.3,0.3-0.5,0.7-0.5,1.2c0,0.5,0.2,0.9,0.5,1.2C349,60.2,349.4,60.4,349.9,60.4 M344.7,59.7h0.6c0.2,0,0.3-0.1,0.3-0.3v-1.7   c0-0.2-0.1-0.3-0.3-0.3h-0.9c-1.2,0-2.1,0.1-2.7,0.4c-0.6,0.3-1.1,0.7-1.4,1.3c-0.3,0.6-0.4,1.5-0.4,2.6v0.5c0,0.1,0,0.1-0.1,0.1   h-1.7c-0.2,0-0.3,0.1-0.3,0.3v1.8c0,0.2,0.1,0.3,0.3,0.3h1.7c0.1,0,0.1,0,0.1,0.1v10.5c0,0.2,0.1,0.3,0.3,0.3h2   c0.2,0,0.3-0.1,0.3-0.3V64.8c0-0.1,0-0.1,0.1-0.1h2.7c0.2,0,0.3-0.1,0.3-0.3v-1.8c0-0.2-0.1-0.3-0.3-0.3h-2.7c-0.1,0-0.1,0-0.1-0.1   V62c0-0.9,0.2-1.5,0.5-1.9C343.3,59.8,343.9,59.7,344.7,59.7 M330.4,64.2v-1.5c0-0.2-0.1-0.3-0.3-0.3h-2.8c-0.1,0-0.1,0-0.1-0.1   v-3.1c0-0.2-0.1-0.3-0.3-0.3h-1.9c-0.2,0-0.3,0.1-0.3,0.3v3.1c0,0.1,0,0.1-0.1,0.1h-1.6c-0.2,0-0.3,0.1-0.3,0.3v1.5   c0,0.2,0.1,0.3,0.3,0.3h1.6c0.1,0,0.1,0,0.1,0.1v7.7c0,1.3,0.3,2.2,1,2.6c0.7,0.5,1.7,0.7,3,0.7c0.2,0,0.6,0,1.2-0.1   c0.2,0,0.3-0.1,0.3-0.3v-1.6c0-0.2-0.1-0.3-0.3-0.3h-0.8c-0.7,0-1.2-0.2-1.5-0.5c-0.3-0.3-0.5-0.8-0.5-1.6v-6.9   c0-0.1,0-0.1,0.1-0.1h2.8C330.3,64.5,330.4,64.4,330.4,64.2 M315.7,62.3c-1.4,0-2.5,0.5-3.3,1.4c0,0,0,0-0.1,0c0,0,0,0,0-0.1v-0.9   c0-0.2-0.1-0.3-0.3-0.3h-2c-0.2,0-0.3,0.1-0.3,0.3v12.7c0,0.2,0.1,0.3,0.3,0.3h2c0.2,0,0.3-0.1,0.3-0.3v-8.1c0-0.8,0.3-1.5,0.8-2.1   c0.5-0.5,1.2-0.8,2-0.8c0.8,0,1.5,0.3,2,0.8c0.5,0.5,0.8,1.2,0.8,2.1v8c0,0.2,0.1,0.3,0.3,0.3h2c0.2,0,0.3-0.1,0.3-0.3v-8.5   c0-1.4-0.4-2.5-1.2-3.3C318.2,62.7,317.1,62.3,315.7,62.3 M300.9,64.4c0.8,0,1.4,0.2,1.9,0.6c0.5,0.4,0.8,0.9,1,1.6   c0.1,0.3,0.1,0.7,0.2,1.3c0,0.1,0,0.1-0.1,0.1h-5.9c-0.1,0-0.1,0-0.1-0.1c0-0.6,0.1-1.1,0.2-1.4c0.2-0.6,0.5-1.1,1-1.5   C299.5,64.6,300.2,64.4,300.9,64.4 M306.4,67.4c-0.2-1.7-0.7-3-1.6-3.8c-0.9-0.9-2.2-1.3-3.9-1.3c-1.3,0-2.5,0.3-3.4,1   c-0.9,0.7-1.6,1.6-1.9,2.8c-0.2,0.7-0.3,1.6-0.3,2.9c0,1.4,0.2,2.7,0.6,3.7c0.4,1,1.1,1.8,1.9,2.4c0.9,0.6,1.9,0.8,3.2,0.8   c1.1,0,2.1-0.2,3-0.7c0.9-0.4,1.6-1.1,2.1-1.8c0.1-0.1,0-0.2-0.1-0.3l-1.5-1c-0.1-0.1-0.3-0.1-0.3,0.1c-0.7,1.1-1.7,1.6-2.9,1.6   c-0.9,0-1.6-0.2-2.2-0.6c-0.6-0.4-1-0.9-1.2-1.6c-0.1-0.3-0.2-0.8-0.2-1.3c0-0.1,0-0.1,0.1-0.1h8.3c0.2,0,0.3-0.1,0.3-0.3   C306.5,68.9,306.5,68.1,306.4,67.4 M289.7,75.6h2c0.2,0,0.3-0.1,0.3-0.3V57.8c0-0.2-0.1-0.3-0.3-0.3h-2c-0.2,0-0.3,0.1-0.3,0.3   v17.6C289.4,75.5,289.5,75.6,289.7,75.6 M283.4,75.6h2c0.2,0,0.3-0.1,0.3-0.3V57.8c0-0.2-0.1-0.3-0.3-0.3h-2   c-0.2,0-0.3,0.1-0.3,0.3v17.6C283.1,75.5,283.2,75.6,283.4,75.6 M274.2,64.4c0.8,0,1.4,0.2,1.9,0.6c0.5,0.4,0.8,0.9,1,1.6   c0.1,0.3,0.1,0.7,0.2,1.3c0,0.1,0,0.1-0.1,0.1h-5.9c-0.1,0-0.1,0-0.1-0.1c0-0.6,0.1-1.1,0.2-1.4c0.2-0.6,0.5-1.1,1-1.5   C272.8,64.6,273.5,64.4,274.2,64.4 M279.7,67.4c-0.2-1.7-0.7-3-1.6-3.8c-0.9-0.9-2.2-1.3-3.9-1.3c-1.3,0-2.5,0.3-3.4,1   c-0.9,0.7-1.6,1.6-1.9,2.8c-0.2,0.7-0.3,1.6-0.3,2.9c0,1.4,0.2,2.7,0.6,3.7c0.4,1,1.1,1.8,1.9,2.4c0.9,0.6,1.9,0.8,3.2,0.8   c1.1,0,2.1-0.2,3-0.7c0.9-0.4,1.6-1.1,2.1-1.8c0.1-0.1,0-0.2-0.1-0.3l-1.5-1c-0.1-0.1-0.2-0.1-0.3,0.1c-0.7,1.1-1.7,1.6-3,1.6   c-0.9,0-1.6-0.2-2.2-0.6c-0.6-0.4-1-0.9-1.2-1.6c-0.1-0.3-0.2-0.8-0.2-1.3c0-0.1,0-0.1,0.1-0.1h8.3c0.2,0,0.3-0.1,0.3-0.3   C279.8,68.9,279.7,68.1,279.7,67.4 M260.5,75.8c1.3,0,2.4-0.3,3.4-1c1-0.6,1.6-1.5,1.9-2.5c0.1-0.2,0.1-0.4,0.1-0.6v-0.1   c0-0.1-0.1-0.2-0.2-0.2l-1.9-0.3c-0.1,0-0.2,0-0.3,0.2v0.1c0,0,0,0,0,0.1c0,0,0,0,0,0.1c-0.1,0.6-0.5,1.2-1,1.6   c-0.5,0.4-1.2,0.6-2,0.6c-0.7,0-1.4-0.2-1.9-0.6c-0.5-0.4-0.8-0.9-1-1.6c-0.2-0.6-0.2-1.4-0.2-2.4c0-1,0.1-1.8,0.2-2.5   c0.2-0.7,0.5-1.2,1-1.6c0.5-0.4,1.1-0.6,1.9-0.6c0.8,0,1.4,0.2,1.9,0.6c0.5,0.4,0.9,0.9,1,1.5l0.1,0.4c0.1,0.2,0.1,0.2,0.3,0.2h0.1   l1.9-0.3c0.2,0,0.2-0.1,0.2-0.3c0-0.3-0.1-0.6-0.2-0.9c-0.3-1-0.9-1.8-1.9-2.5c-1-0.7-2.1-1-3.4-1c-1.3,0-2.4,0.3-3.4,1   c-0.9,0.7-1.6,1.5-1.9,2.6c-0.3,0.9-0.4,1.9-0.4,3.1c0,1.3,0.1,2.3,0.4,3.1c0.3,1.1,1,2,1.9,2.7C258,75.5,259.1,75.8,260.5,75.8    M241.7,75.6h2.2c0.1,0,0.2-0.1,0.3-0.2l3-4.4c0,0,0-0.1,0.1-0.1c0,0,0.1,0,0.1,0.1l3,4.4c0.1,0.1,0.2,0.2,0.3,0.2h2.1   c0.2,0,0.2-0.1,0.2-0.2l-0.1-0.1l-4.3-6.2c0-0.1,0-0.1,0-0.2l4.3-6.2c0.1-0.1,0.1-0.2,0-0.2c0-0.1-0.1-0.1-0.2-0.1h-2.3   c-0.1,0-0.2,0.1-0.3,0.2l-3,4.4c0,0,0,0-0.1,0c0,0-0.1,0-0.1,0l-3-4.4c-0.1-0.1-0.2-0.2-0.3-0.2h-2.1c-0.2,0-0.2,0.1-0.2,0.2   l0.1,0.1l4.3,6.2c0,0.1,0,0.1,0,0.2l-4.3,6.2c-0.1,0.1-0.1,0.2,0,0.2C241.5,75.6,241.6,75.6,241.7,75.6 M234,64.4   c0.8,0,1.4,0.2,1.9,0.6c0.5,0.4,0.8,0.9,1,1.6c0.1,0.3,0.1,0.7,0.2,1.3c0,0.1,0,0.1-0.1,0.1h-5.9c-0.1,0-0.1,0-0.1-0.1   c0-0.6,0.1-1.1,0.2-1.4c0.2-0.6,0.5-1.1,1-1.5C232.7,64.6,233.3,64.4,234,64.4 M239.5,67.4c-0.2-1.7-0.7-3-1.6-3.8   c-0.9-0.9-2.2-1.3-3.9-1.3c-1.3,0-2.5,0.3-3.4,1c-0.9,0.7-1.6,1.6-1.9,2.8c-0.2,0.7-0.3,1.6-0.3,2.9c0,1.4,0.2,2.7,0.6,3.7   c0.4,1,1.1,1.8,1.9,2.4c0.9,0.6,1.9,0.8,3.2,0.8c1.1,0,2.1-0.2,3-0.7c0.9-0.4,1.6-1.1,2.1-1.8c0.1-0.1,0-0.2-0.1-0.3l-1.5-1   c-0.1-0.1-0.3-0.1-0.3,0.1c-0.7,1.1-1.7,1.6-2.9,1.6c-0.9,0-1.6-0.2-2.2-0.6c-0.6-0.4-1-0.9-1.2-1.6c-0.1-0.3-0.2-0.8-0.2-1.3   c0-0.1,0-0.1,0.1-0.1h8.3c0.2,0,0.3-0.1,0.3-0.3C239.6,68.9,239.6,68.1,239.5,67.4 M215.2,62.3c-1.4,0-2.5,0.5-3.3,1.4   c0,0,0,0-0.1,0c0,0,0,0,0-0.1v-0.9c0-0.2-0.1-0.3-0.3-0.3h-2c-0.2,0-0.3,0.1-0.3,0.3v12.7c0,0.2,0.1,0.3,0.3,0.3h2   c0.2,0,0.3-0.1,0.3-0.3v-8.1c0-0.8,0.3-1.5,0.8-2.1c0.5-0.5,1.2-0.8,2-0.8c0.8,0,1.5,0.3,2,0.8c0.5,0.5,0.8,1.2,0.8,2.1v8   c0,0.2,0.1,0.3,0.3,0.3h2c0.2,0,0.3-0.1,0.3-0.3v-8.5c0-1.4-0.4-2.5-1.2-3.3C217.8,62.7,216.6,62.3,215.2,62.3 M199.8,73.7   c-0.7,0-1.3-0.2-1.8-0.5c-0.5-0.3-0.7-0.8-0.7-1.4c0-0.7,0.3-1.3,0.9-1.7c0.6-0.4,1.4-0.6,2.4-0.6h2.4c0.1,0,0.1,0,0.1,0.1v1.5   c0,0.7-0.3,1.4-1,1.8C201.5,73.5,200.7,73.7,199.8,73.7 M200.4,62.2c-1.4,0-2.6,0.3-3.6,1c-0.9,0.6-1.5,1.5-1.6,2.5   c0,0.1,0.1,0.2,0.2,0.2l2.1,0.3c0.2,0,0.3-0.1,0.3-0.2c0.1-0.5,0.4-0.9,0.8-1.2c0.5-0.3,1-0.4,1.8-0.4c0.9,0,1.6,0.2,2,0.6   c0.4,0.4,0.7,1,0.7,1.8v0.7c0,0.1,0,0.1-0.1,0.1h-2.9c-1.7,0-3,0.4-3.9,1.2c-0.9,0.8-1.4,1.8-1.4,3.2c0,1.3,0.4,2.3,1.3,2.9   c0.8,0.6,1.9,1,3.2,1c0.8,0,1.5-0.1,2.2-0.4c0.6-0.3,1.2-0.6,1.6-1.1c0.1-0.1,0.1,0,0.1,0.1v0.9c0,0.2,0.1,0.3,0.3,0.3h2   c0.2,0,0.3-0.1,0.3-0.3v-8.7c0-0.8-0.2-1.6-0.6-2.3c-0.4-0.7-1-1.2-1.8-1.6C202.4,62.4,201.5,62.2,200.4,62.2 M186.3,62.3   c-1.3,0-2.4,0.6-3.2,1.8c0,0,0,0-0.1,0c0,0,0,0,0-0.1v-1.4c0-0.2-0.1-0.3-0.3-0.3h-2c-0.2,0-0.3,0.1-0.3,0.3v12.7   c0,0.2,0.1,0.3,0.3,0.3h2c0.2,0,0.3-0.1,0.3-0.3v-7.6c0-0.8,0.3-1.5,0.8-2.1c0.5-0.5,1.2-0.8,2-0.8l0.4,0c0.4,0,0.7,0.1,1,0.2   c0.2,0.1,0.3,0,0.3-0.2l0.4-1.9c0-0.2,0-0.3-0.1-0.3C187.4,62.4,186.9,62.3,186.3,62.3 M171.4,73.7c-0.7,0-1.4-0.2-1.9-0.6   c-0.5-0.4-0.9-0.9-1.1-1.6c-0.2-0.6-0.3-1.4-0.3-2.4c0-1,0.1-1.8,0.3-2.4c0.2-0.7,0.6-1.3,1.1-1.6c0.5-0.4,1.1-0.6,1.8-0.6   c0.7,0,1.4,0.2,1.9,0.6c0.5,0.4,0.9,0.9,1.1,1.6c0.2,0.6,0.3,1.4,0.3,2.4c0,1-0.1,1.8-0.3,2.4c-0.2,0.7-0.6,1.3-1.1,1.6   C172.7,73.5,172.1,73.7,171.4,73.7 M171.4,75.8c1.3,0,2.4-0.3,3.3-1c0.9-0.6,1.6-1.5,2-2.7c0.3-0.9,0.5-2,0.5-3.2   c0-1.2-0.2-2.2-0.5-3.1c-0.4-1.1-1.1-2-2-2.7c-0.9-0.6-2-1-3.2-1c-1.3,0-2.4,0.3-3.4,1c-0.9,0.6-1.6,1.5-2,2.7   c-0.3,0.8-0.4,1.9-0.4,3.1c0,1.2,0.2,2.2,0.5,3.2c0.4,1.2,1,2.1,2,2.7C169,75.5,170.1,75.8,171.4,75.8 M162.5,59.7h0.6   c0.2,0,0.3-0.1,0.3-0.3v-1.7c0-0.2-0.1-0.3-0.3-0.3h-0.9c-1.2,0-2.1,0.1-2.7,0.4c-0.6,0.3-1.1,0.7-1.4,1.3   c-0.3,0.6-0.4,1.5-0.4,2.6v0.5c0,0.1,0,0.1-0.1,0.1h-1.7c-0.2,0-0.3,0.1-0.3,0.3v1.8c0,0.2,0.1,0.3,0.3,0.3h1.7   c0.1,0,0.1,0,0.1,0.1v10.5c0,0.2,0.1,0.3,0.3,0.3h2c0.2,0,0.3-0.1,0.3-0.3V64.8c0-0.1,0-0.1,0.1-0.1h2.7c0.2,0,0.3-0.1,0.3-0.3   v-1.8c0-0.2-0.1-0.3-0.3-0.3h-2.7c-0.1,0-0.1,0-0.1-0.1V62c0-0.9,0.2-1.5,0.5-1.9C161,59.8,161.6,59.7,162.5,59.7"></path>
</g>
<path class="st0" d="M66.6,0C29.9,0,0,29.9,0,66.6s29.9,66.6,66.6,66.6c36.7,0,66.6-29.9,66.6-66.6S103.3,0,66.6,0z M66.6,3.5  c27.7,0,51.2,17.9,59.7,42.7h-23.7c-7.1-12.5-20.6-21-36-21s-28.9,8.5-36,21H6.9C15.4,21.4,39,3.5,66.6,3.5z M66.6,129.7  c-27.7,0-51.3-17.9-59.7-42.8h23.7c7.1,12.6,20.6,21.1,36,21.1c15.5,0,28.9-8.5,36-21.1h23.7C117.9,111.8,94.3,129.7,66.6,129.7z   M5.8,83.4c-1.5-5.4-2.3-11-2.3-16.8c0-5.9,0.8-11.5,2.3-16.9h121.6c1.5,5.4,2.3,11.1,2.3,16.9c0,5.8-0.8,11.5-2.3,16.8H5.8z"></path>
<g>
	<path class="st0" d="M111.6,75.9c2,0,3.7-0.5,4.9-1.4s1.8-2.2,1.8-3.9c0-1.1-0.3-2-0.8-2.7c-0.6-0.7-1.2-1.2-1.9-1.5   c-0.7-0.3-1.7-0.7-2.9-1.2c-1.1-0.4-1.9-0.7-2.5-0.9c-0.5-0.2-0.9-0.5-1.2-0.8c-0.3-0.3-0.4-0.7-0.4-1.1c0-0.6,0.2-1.1,0.7-1.4   c0.5-0.3,1.1-0.5,1.9-0.5c1,0,1.9,0.3,2.5,0.8s0.9,1.1,0.9,1.9v0.2c0,0.1,0,0.2,0.1,0.2c0.1,0.1,0.1,0.1,0.2,0.1h3   c0.1,0,0.2,0,0.2-0.1c0.1-0.1,0.1-0.1,0.1-0.2v-0.4c0-1.1-0.3-2.1-0.9-2.9c-0.6-0.8-1.4-1.5-2.4-2c-1-0.5-2.2-0.7-3.5-0.7   c-1.2,0-2.3,0.2-3.3,0.6c-1,0.4-1.7,1-2.2,1.8c-0.5,0.8-0.8,1.7-0.8,2.7c0,1.1,0.3,1.9,0.8,2.7c0.5,0.7,1.2,1.3,2,1.7   s1.8,0.8,3,1.2c1,0.4,1.8,0.7,2.3,0.9c0.5,0.2,0.9,0.5,1.1,0.8c0.3,0.3,0.4,0.6,0.4,1.1c0,0.6-0.2,1.1-0.7,1.4   c-0.5,0.4-1.1,0.6-2.1,0.6c-1.1,0-2-0.2-2.6-0.7c-0.6-0.5-1-1.1-1-1.8v-0.4c0-0.1,0-0.2-0.1-0.2c-0.1-0.1-0.1-0.1-0.2-0.1h-3   c-0.1,0-0.2,0-0.2,0.1c-0.1,0.1-0.1,0.1-0.1,0.2v0.6c0,1.1,0.3,2.1,0.8,2.9c0.6,0.8,1.4,1.5,2.4,1.9   C109,75.6,110.2,75.9,111.6,75.9 M101,60.3v-2.5c0-0.1,0-0.2-0.1-0.2c-0.1-0.1-0.1-0.1-0.2-0.1h-12c-0.1,0-0.2,0-0.2,0.1   c-0.1,0.1-0.1,0.1-0.1,0.2v17.6c0,0.1,0,0.2,0.1,0.2c0.1,0.1,0.1,0.1,0.2,0.1h12c0.1,0,0.2,0,0.2-0.1c0.1-0.1,0.1-0.1,0.1-0.2v-2.5   c0-0.1,0-0.2-0.1-0.2c-0.1-0.1-0.1-0.1-0.2-0.1h-8.5c-0.1,0-0.1,0-0.1-0.1v-4.2c0-0.1,0-0.1,0.1-0.1h5.6c0.1,0,0.2,0,0.2-0.1   c0.1-0.1,0.1-0.1,0.1-0.2v-2.5c0-0.1,0-0.2-0.1-0.2c-0.1-0.1-0.1-0.1-0.2-0.1h-5.6c-0.1,0-0.1,0-0.1-0.1v-4c0-0.1,0-0.1,0.1-0.1   h8.5c0.1,0,0.2,0,0.2-0.1C101,60.5,101,60.4,101,60.3 M79.8,57.7l-3.9,6.1c-0.1,0.1-0.1,0.1-0.2,0l-3.9-6.1   c-0.1-0.1-0.2-0.2-0.4-0.2h-3c-0.1,0-0.2,0-0.2,0.1c-0.1,0.1-0.1,0.1-0.1,0.2v17.6c0,0.1,0,0.2,0.1,0.2c0.1,0.1,0.1,0.1,0.2,0.1h3   c0.1,0,0.2,0,0.2-0.1c0.1-0.1,0.1-0.1,0.1-0.2V63.9c0-0.1,0-0.1,0.1-0.1c0,0,0.1,0,0.1,0.1l2.8,4.3c0.1,0.1,0.2,0.2,0.4,0.2h1.5   c0.2,0,0.3-0.1,0.4-0.2l2.8-4.3c0-0.1,0.1-0.1,0.1-0.1c0,0,0.1,0,0.1,0.1v11.5c0,0.1,0,0.2,0.1,0.2c0.1,0.1,0.1,0.1,0.2,0.1h3   c0.1,0,0.2,0,0.2-0.1c0.1-0.1,0.1-0.1,0.1-0.2V57.8c0-0.1,0-0.2-0.1-0.2c-0.1-0.1-0.1-0.1-0.2-0.1h-3C80,57.5,79.9,57.5,79.8,57.7    M54.3,60.6h3.4c0.7,0,1.3,0.2,1.8,0.7c0.5,0.4,0.7,1,0.7,1.7s-0.2,1.3-0.7,1.7c-0.5,0.4-1.1,0.6-1.8,0.6h-3.4   c-0.1,0-0.1,0-0.1-0.1v-4.4C54.1,60.6,54.2,60.6,54.3,60.6 M60.5,75.7h3.2c0.2,0,0.3-0.1,0.3-0.2c0,0,0-0.1-0.1-0.2l-3.5-7.4   c0-0.1,0-0.1,0.1-0.2c1.1-0.3,1.9-0.9,2.5-1.8c0.6-0.8,0.9-1.8,0.9-3c0-1.1-0.2-2.1-0.7-2.9c-0.5-0.8-1.1-1.5-2-1.9   c-0.8-0.5-1.8-0.7-2.9-0.7h-7.4c-0.1,0-0.2,0-0.2,0.1c-0.1,0.1-0.1,0.1-0.1,0.2v17.6c0,0.1,0,0.2,0.1,0.2c0.1,0.1,0.1,0.1,0.2,0.1   h3c0.1,0,0.2,0,0.2-0.1c0.1-0.1,0.1-0.1,0.1-0.2v-7.1c0-0.1,0-0.1,0.1-0.1h2.4c0.1,0,0.1,0,0.2,0.1l3.2,7.2   C60.2,75.6,60.3,75.7,60.5,75.7 M46.3,60.3v-2.5c0-0.1,0-0.2-0.1-0.2c-0.1-0.1-0.1-0.1-0.2-0.1h-12c-0.1,0-0.2,0-0.2,0.1   c-0.1,0.1-0.1,0.1-0.1,0.2v17.6c0,0.1,0,0.2,0.1,0.2c0.1,0.1,0.1,0.1,0.2,0.1h12c0.1,0,0.2,0,0.2-0.1c0.1-0.1,0.1-0.1,0.1-0.2v-2.5   c0-0.1,0-0.2-0.1-0.2c-0.1-0.1-0.1-0.1-0.2-0.1h-8.5c-0.1,0-0.1,0-0.1-0.1v-4.2c0-0.1,0-0.1,0.1-0.1H43c0.1,0,0.2,0,0.2-0.1   c0.1-0.1,0.1-0.1,0.1-0.2v-2.5c0-0.1,0-0.2-0.1-0.2c-0.1-0.1-0.1-0.1-0.2-0.1h-5.6c-0.1,0-0.1,0-0.1-0.1v-4c0-0.1,0-0.1,0.1-0.1H46   c0.1,0,0.2,0,0.2-0.1C46.2,60.5,46.3,60.4,46.3,60.3 M25.2,57.8v7c0,0.1,0,0.1-0.1,0.1h-5.7c-0.1,0-0.1,0-0.1-0.1v-7   c0-0.1,0-0.2-0.1-0.2c-0.1-0.1-0.1-0.1-0.2-0.1h-3c-0.1,0-0.2,0-0.2,0.1c-0.1,0.1-0.1,0.1-0.1,0.2v17.6c0,0.1,0,0.2,0.1,0.2   c0.1,0.1,0.1,0.1,0.2,0.1h3c0.1,0,0.2,0,0.2-0.1c0.1-0.1,0.1-0.1,0.1-0.2v-7.2c0-0.1,0-0.1,0.1-0.1h5.7c0.1,0,0.1,0,0.1,0.1v7.2   c0,0.1,0,0.2,0.1,0.2c0.1,0.1,0.1,0.1,0.2,0.1h3c0.1,0,0.2,0,0.2-0.1c0.1-0.1,0.1-0.1,0.1-0.2V57.8c0-0.1,0-0.2-0.1-0.2   c-0.1-0.1-0.1-0.1-0.2-0.1h-3c-0.1,0-0.2,0-0.2,0.1C25.2,57.6,25.2,57.7,25.2,57.8"></path>
</g>
</svg>
